<svg width="40" height="40" viewBox="0 0 40 40" fill="none" xmlns="http://www.w3.org/2000/svg">
<path fill-rule="evenodd" clip-rule="evenodd" d="M19.9997 3.33398C10.7947 3.33398 3.33301 10.7957 3.33301 20.0007C3.33301 23.1507 4.20801 26.1007 5.72967 28.614L4.24301 33.6673C4.15765 33.9575 4.15203 34.2652 4.22675 34.5583C4.30146 34.8513 4.45375 35.1189 4.66761 35.3327C4.88146 35.5466 5.14898 35.6989 5.44204 35.7736C5.73509 35.8483 6.04287 35.8427 6.33301 35.7573L11.3863 34.2707C13.9842 35.8422 16.9634 36.6712 19.9997 36.6673C29.2047 36.6673 36.6663 29.2057 36.6663 20.0007C36.6663 10.7957 29.2047 3.33398 19.9997 3.33398ZM16.2297 23.7723C19.6013 27.1423 22.8197 27.5873 23.9563 27.629C25.6847 27.6923 27.368 26.3723 28.023 24.8407C28.105 24.65 28.1346 24.4409 28.1089 24.2349C28.0831 24.0289 28.0028 23.8336 27.8763 23.669C26.963 22.5023 25.728 21.664 24.5213 20.8307C24.2695 20.656 23.9598 20.5859 23.6574 20.635C23.3549 20.6841 23.0833 20.8487 22.8997 21.094L21.8997 22.619C21.8468 22.7007 21.7649 22.7592 21.6705 22.7827C21.5761 22.8062 21.4763 22.793 21.3913 22.7457C20.713 22.3573 19.7247 21.6973 19.0147 20.9873C18.3047 20.2773 17.6847 19.334 17.3363 18.699C17.2942 18.6181 17.2823 18.5248 17.3028 18.4359C17.3232 18.347 17.3747 18.2683 17.448 18.214L18.988 17.0707C19.2084 16.88 19.3507 16.6147 19.3876 16.3256C19.4245 16.0365 19.3534 15.7439 19.188 15.504C18.4413 14.4107 17.5713 13.0207 16.3097 12.099C16.1465 11.9817 15.9558 11.9086 15.7561 11.8867C15.5564 11.8648 15.3544 11.8949 15.1697 11.974C13.6363 12.6307 12.3097 14.314 12.373 16.0457C12.4147 17.1823 12.8597 20.4007 16.2297 23.7723Z" fill="white"/>
</svg>
