<svg width="65" height="64" viewBox="0 0 65 64" fill="none" xmlns="http://www.w3.org/2000/svg">
<path d="M7.82272 26.2574C7.82244 23.9429 10.9937 22.9282 12.1035 22.4526C11.6278 15.7937 22.5672 6.08646 22.5672 7.70801C22.5672 17.6962 23.0428 16.7449 25.8965 16.7449C28.2749 16.7449 26.3724 2.00003 27.7993 2.00003C30.4628 2.00003 32.0797 2.00049 32.5553 2.00049C33.0309 2.00049 34.6483 1.99924 37.3118 2.00003C38.7387 2.00046 36.8362 16.7449 39.2141 16.7444C42.0678 16.7439 42.5435 17.6957 42.5435 7.70755C42.5435 6.086 53.4829 15.7932 53.0071 22.4521C54.1169 22.9277 57.2882 23.9425 57.2879 26.257C57.2877 27.6839 57.7633 30.0621 55.8609 30.0621C53.5779 30.0621 39.3726 30.0626 32.5553 30.0626H9.24974C7.34738 30.0626 7.82289 27.6843 7.82272 26.2574Z" fill="#00ABF2"/>
<path d="M56.7632 39.272C56.7603 39.759 53.4213 40.38 51.7515 40.3774V40.0669C51.3271 41.8204 50.6725 43.4834 49.8208 45.0229L49.8823 44.9604C51.0784 46.1263 53.0338 48.9065 52.6938 49.2554L47.2534 54.8364C46.9532 55.1445 44.2773 53.4255 43.0171 52.2573C41.4271 53.269 39.6849 54.0624 37.8325 54.5962C37.762 56.3391 37.1837 59.275 36.7271 59.2759H28.9321C28.537 59.2745 27.9668 56.6453 27.8433 54.8862C25.9304 54.4547 24.1218 53.7493 22.4595 52.814C21.1365 53.9781 18.8104 55.4834 18.5269 55.1997L13.0171 49.686C12.7213 49.3878 14.1085 47.2617 15.2534 45.9253C14.1304 44.1242 13.2859 42.1319 12.7788 40.0083V40.3159C11.1085 40.3132 7.76926 39.6809 7.77002 39.1938L7.77686 34.7788H22.2671C22.257 34.9631 22.2515 35.1487 22.2515 35.3354C22.2515 40.8701 26.7383 45.3569 32.2729 45.3569C37.8075 45.3568 42.2944 40.87 42.2944 35.3354C42.2944 35.1486 42.2879 34.9631 42.2778 34.7788H56.77L56.7632 39.272Z" fill="#061959"/>
</svg>
