<svg width="24" height="24" viewBox="0 0 24 24" fill="none" xmlns="http://www.w3.org/2000/svg">
<g clip-path="url(#clip0_89_703)">
<path d="M13.7194 10.2804C13.6497 10.2108 13.5943 10.1281 13.5566 10.037C13.5188 9.94597 13.4994 9.84837 13.4994 9.74981C13.4994 9.65125 13.5188 9.55365 13.5566 9.46261C13.5943 9.37156 13.6497 9.28884 13.7194 9.21919L16.9397 5.99981H15C14.8011 5.99981 14.6103 5.92079 14.4697 5.78014C14.329 5.63949 14.25 5.44872 14.25 5.24981C14.25 5.0509 14.329 4.86013 14.4697 4.71948C14.6103 4.57883 14.8011 4.49981 15 4.49981H18.75C18.9489 4.49981 19.1397 4.57883 19.2803 4.71948C19.421 4.86013 19.5 5.0509 19.5 5.24981V8.99981C19.5 9.19872 19.421 9.38949 19.2803 9.53014C19.1397 9.67079 18.9489 9.74981 18.75 9.74981C18.5511 9.74981 18.3603 9.67079 18.2197 9.53014C18.079 9.38949 18 9.19872 18 8.99981V7.06012L14.7806 10.2804C14.711 10.3502 14.6283 10.4055 14.5372 10.4432C14.4462 10.481 14.3486 10.5004 14.25 10.5004C14.1514 10.5004 14.0539 10.481 13.9628 10.4432C13.8718 10.4055 13.789 10.3502 13.7194 10.2804ZM20.0944 15.6054L15.6778 13.6264L15.6656 13.6207C15.4364 13.5227 15.1862 13.4833 14.9379 13.5062C14.6896 13.5292 14.4509 13.6136 14.2434 13.752C14.219 13.7681 14.1955 13.7857 14.1731 13.8045L11.8941 15.7498C10.4484 15.0476 8.95595 13.5664 8.25376 12.1395L10.2019 9.82294C10.2206 9.7995 10.2384 9.77606 10.2553 9.75075C10.3907 9.54384 10.4729 9.30667 10.4945 9.06035C10.5161 8.81402 10.4764 8.56618 10.3791 8.33887V8.32762L8.39438 3.90356C8.2657 3.60662 8.04444 3.35926 7.76362 3.19841C7.4828 3.03756 7.1575 2.97184 6.83626 3.01106C5.56592 3.17822 4.39986 3.80209 3.55588 4.76615C2.7119 5.73021 2.24771 6.96852 2.25001 8.24981C2.25001 15.6936 8.30626 21.7498 15.75 21.7498C17.0313 21.7521 18.2696 21.2879 19.2337 20.4439C20.1977 19.6 20.8216 18.4339 20.9888 17.1636C21.0281 16.8424 20.9625 16.5172 20.8018 16.2364C20.6411 15.9556 20.394 15.7343 20.0972 15.6054H20.0944Z" fill="#F18101"/>
</g>
<defs>
<clipPath id="clip0_89_703">
<rect width="24" height="24" fill="white"/>
</clipPath>
</defs>
</svg>
