<svg width="64" height="64" viewBox="0 0 64 64" fill="none" xmlns="http://www.w3.org/2000/svg">
<g clip-path="url(#clip0_151_1356)">
<mask id="mask0_151_1356" style="mask-type:alpha" maskUnits="userSpaceOnUse" x="-2" y="5" width="39" height="54">
<rect x="10.5215" y="5.84082" width="26.9632" height="47.8074" transform="rotate(14.2747 10.5215 5.84082)" fill="#061959"/>
</mask>
<g mask="url(#mask0_151_1356)">
<path d="M34.3141 17.514L27.5288 15.7934C27.1411 15.695 25.8221 18.4555 25.4534 19.9094L34.1772 22.1217C34.546 20.6677 34.7381 17.6215 34.3141 17.514Z" fill="#061959"/>
<path d="M45.6027 46.2037L47.3342 39.4213C47.4331 39.0337 44.6749 37.7102 43.2215 37.3392L40.9952 46.0595C42.4486 46.4305 45.4945 46.6276 45.6027 46.2037Z" fill="#061959"/>
<path d="M5.22151 45.6129L8.80058 51.6287C9.00509 51.9724 11.89 50.9543 13.1792 50.1873L8.57756 42.4526C7.28845 43.2196 4.99786 45.2369 5.22151 45.6129Z" fill="#061959"/>
<path d="M16.396 17.3196L10.4279 20.9776C10.0868 21.1866 11.1429 24.0579 11.9268 25.3368L19.6002 20.6337C18.8163 19.3548 16.769 17.091 16.396 17.3196Z" fill="#061959"/>
<path d="M23.7443 59.1947L16.9591 57.4739C16.5713 57.3756 16.7272 54.3202 17.0959 52.8662L25.8197 55.0785C25.451 56.5325 24.1683 59.3022 23.7443 59.1947Z" fill="#061959"/>
<path d="M2.96975 35.3209L4.70136 28.5385C4.8003 28.1509 7.85543 28.3116 9.30884 28.6827L7.08253 37.403C5.62914 37.0319 2.86155 35.7448 2.96975 35.3209Z" fill="#061959"/>
<path d="M42.3243 23.4939L45.9032 29.5097C46.1078 29.8535 43.8364 31.903 42.5472 32.6699L37.9456 24.9352C39.2348 24.1683 42.1006 23.1179 42.3243 23.4939Z" fill="#061959"/>
<path d="M39.8558 53.9961L33.8875 57.654C33.5465 57.8631 31.4673 55.6188 30.6834 54.3399L38.3568 49.6369C39.1407 50.9158 40.2287 53.7675 39.8558 53.9961Z" fill="#061959"/>
<path fill-rule="evenodd" clip-rule="evenodd" d="M29.5763 19.9233C39.2124 22.3669 45.0431 32.1595 42.5995 41.7956C40.1559 51.4317 30.3633 57.2624 20.7272 54.8188C11.0911 52.3752 5.26041 42.5826 7.70403 32.9465C10.1476 23.3104 19.9402 17.4797 29.5763 19.9233ZM27.364 28.6472C22.546 27.4254 17.6497 30.3407 16.4279 35.1588C15.2061 39.9768 18.1214 44.8731 22.9395 46.0949C27.7575 47.3167 32.6538 44.4014 33.8756 39.5833C35.0974 34.7653 32.1821 29.869 27.364 28.6472Z" fill="#061959"/>
</g>
<path d="M46.2764 9.43562C47.4303 9.43562 48.5222 9.70137 49.4942 10.175C51.9436 11.3686 53.6314 13.8825 53.6314 16.7906C53.6314 20.8527 50.3384 24.1456 46.2764 24.1456C42.2143 24.1456 38.9214 20.8527 38.9214 16.7906C38.9214 13.8825 40.6092 11.3686 43.0586 10.175C44.0305 9.70137 45.1224 9.43562 46.2764 9.43562ZM46.2764 13.1131C44.2454 13.1131 42.5989 14.7596 42.5989 16.7906C42.5989 18.8216 44.2454 20.4681 46.2764 20.4681C48.3074 20.4681 49.9539 18.8216 49.9539 16.7906C49.9539 14.7596 48.3074 13.1131 46.2764 13.1131Z" fill="#00ABF2"/>
<path d="M43.0586 10.175C44.0305 9.70137 45.1224 9.43562 46.2764 9.43562C47.4303 9.43562 48.5222 9.70137 49.4942 10.175C49.4942 5.75812 49.7133 3 46.2764 3C42.9666 3 43.0586 5.75812 43.0586 10.175Z" fill="#00ABF2"/>
<path d="M38.8217 23.624C40.3135 25.2505 42.3309 26.3844 44.6046 26.7628C43.8295 30.0234 42.8364 34.1788 41.8562 38.2404C41.7323 38.7541 41.6085 39.2663 41.4854 39.775C39.7864 46.7966 38.2159 53.1514 38.002 53.579C37.5423 54.4984 33.8648 60.0146 32.9455 60.0146C32.0261 60.0146 31.5664 52.6597 31.5664 52.2C31.5664 51.8371 36.3396 33.2447 38.8217 23.624Z" fill="#00ABF2"/>
<path d="M52.9966 24.3449C55.5232 34.1424 60.067 51.846 60.067 52.2C60.067 52.6597 59.6073 60.0146 58.6879 60.0146C57.7686 60.0146 54.0911 54.4984 53.6314 53.579C53.4222 53.1607 51.9148 47.0718 50.2589 40.2346C50.1269 39.6895 49.9939 39.1396 49.8606 38.5875C48.8642 34.461 47.8475 30.2082 47.0539 26.8705C49.3283 26.6975 51.3911 25.7742 52.9966 24.3449Z" fill="#00ABF2"/>
<path d="M50.2589 40.2346C50.1269 39.6895 49.9939 39.1396 49.8606 38.5875C48.1151 39.3153 46.569 39.4855 45.247 39.3638C43.6656 39.2183 42.4579 38.672 41.8562 38.2404C41.7323 38.7541 41.6085 39.2663 41.4854 39.775C43.978 41.6137 48.1151 41.6137 50.2589 40.2346Z" fill="#00ABF2"/>
<path d="M45.357 38.8556C45.357 38.3478 45.7686 37.9362 46.2764 37.9362C46.7841 37.9362 47.1958 38.3478 47.1958 38.8556V41.6137C47.1958 42.1215 46.7841 42.5331 46.2764 42.5331C45.7686 42.5331 45.357 42.1215 45.357 41.6137V38.8556Z" fill="#00ABF2"/>
</g>
<defs>
<clipPath id="clip0_151_1356">
<rect width="64" height="64" fill="white"/>
</clipPath>
</defs>
</svg>
