<svg width="20" height="20" viewBox="0 0 20 20" fill="none" xmlns="http://www.w3.org/2000/svg">
<path d="M17.7778 3H2.22222C1.63285 3 1.06762 3.22692 0.650874 3.63085C0.234126 4.03477 0 4.58261 0 5.15385L0 10H20V5.15385C20 4.58261 19.7659 4.03477 19.3491 3.63085C18.9324 3.22692 18.3671 3 17.7778 3Z" fill="#4173CD"/>
<path d="M20 14.8462C20 15.4174 19.7659 15.9652 19.3491 16.3692C18.9324 16.7731 18.3671 17 17.7778 17H2.22222C1.63285 17 1.06762 16.7731 0.650874 16.3692C0.234126 15.9652 0 15.4174 0 14.8462V10H20V14.8462Z" fill="#FFE15A"/>
</svg>
