<svg width="20" height="20" viewBox="0 0 20 20" fill="none" xmlns="http://www.w3.org/2000/svg">
<g clip-path="url(#clip0_80_394)">
<path fill-rule="evenodd" clip-rule="evenodd" d="M0 3V17H20V3H0Z" fill="#41479B"/>
<mask id="mask0_80_394" style="mask-type:luminance" maskUnits="userSpaceOnUse" x="0" y="3" width="20" height="14">
<path fill-rule="evenodd" clip-rule="evenodd" d="M0 3V17H20V3H0Z" fill="white"/>
</mask>
<g mask="url(#mask0_80_394)">
<path d="M-2.22754 15.9996L2.17371 17.7373L20.0987 4.88881L22.4206 2.30698L17.7143 1.72656L10.4031 7.26298L4.51809 10.994L-2.22754 15.9996Z" fill="#F5F5F5"/>
<path d="M-1.625 17.217L0.618125 18.225L21.5875 2.06726H18.4394L-1.625 17.217Z" fill="#FF4B55"/>
<path d="M22.2272 15.9996L17.826 17.7373L-0.0990233 4.88881L-2.4209 2.30698L2.28535 1.72656L9.5966 7.26298L15.4816 10.994L22.2272 15.9996Z" fill="#F5F5F5"/>
<path d="M22.0764 16.8734L19.8339 17.8814L10.9051 10.9631L8.25762 10.1907L-2.64551 2.31573H0.503242L11.3995 10.0041L14.2939 10.9304L22.0764 16.8734Z" fill="#FF4B55"/>
<path fill-rule="evenodd" clip-rule="evenodd" d="M12.3613 1.83331H7.63883V7.66665H-1.23242V12.3333H7.63883V18.1666H12.3613V12.3333H21.2676V7.66665H12.3613V1.83331Z" fill="#FF4B55"/>
<mask id="mask1_80_394" style="mask-type:luminance" maskUnits="userSpaceOnUse" x="-2" y="1" width="24" height="18">
<path fill-rule="evenodd" clip-rule="evenodd" d="M12.3594 1.83331H7.63688V7.66665H-1.23438V12.3333H7.63688V18.1666H12.3594V12.3333H21.2656V7.66665H12.3594V1.83331Z" fill="white"/>
</mask>
<g mask="url(#mask1_80_394)">
<path d="M7.63688 1.83329V0.666626H6.38688V1.83329H7.63688ZM12.3594 1.83329H13.6094V0.666626H12.3594V1.83329ZM7.63688 7.66663V8.83329H8.88688V7.66663H7.63688ZM-1.23438 7.66663V6.49996H-2.48438V7.66663H-1.23438ZM-1.23438 12.3333H-2.48438V13.5H-1.23438V12.3333ZM7.63688 12.3333H8.88688V11.1666H7.63688V12.3333ZM7.63688 18.1666H6.38688V19.3333H7.63688V18.1666ZM12.3594 18.1666V19.3333H13.6094V18.1666H12.3594ZM12.3594 12.3333V11.1666H11.1094V12.3333H12.3594ZM21.2656 12.3333V13.5H22.5156V12.3333H21.2656ZM21.2656 7.66663H22.5156V6.49996H21.2656V7.66663ZM12.3594 7.66663H11.1094V8.83329H12.3594V7.66663ZM7.63688 2.99996H12.3594V0.666626H7.63688V2.99996ZM8.88688 7.66663V1.83329H6.38688V7.66663H8.88688ZM-1.23438 8.83329H7.63688V6.49996H-1.23438V8.83329ZM0.015625 12.3333V7.66663H-2.48438V12.3333H0.015625ZM7.63688 11.1666H-1.23438V13.5H7.63688V11.1666ZM8.88688 18.1666V12.3333H6.38688V18.1666H8.88688ZM12.3594 17H7.63688V19.3333H12.3594V17ZM11.1094 12.3333V18.1666H13.6094V12.3333H11.1094ZM21.2656 11.1666H12.3594V13.5H21.2656V11.1666ZM20.0156 7.66663V12.3333H22.5156V7.66663H20.0156ZM12.3594 8.83329H21.2656V6.49996H12.3594V8.83329ZM11.1094 1.83329V7.66663H13.6094V1.83329H11.1094Z" fill="#F5F5F5"/>
</g>
</g>
</g>
<defs>
<clipPath id="clip0_80_394">
<rect y="3" width="20" height="14" rx="2" fill="white"/>
</clipPath>
</defs>
</svg>
